
 <svg version="1.0" xmlns="http://www.w3.org/2000/svg" width="700.000000pt" height="700.000000pt" viewBox="0 0 700.000000 700.000000" preserveAspectRatio="xMidYMid meet">
<g transform="translate(0.000000,700.000000) scale(0.100000,-0.100000)" fill="#000000" stroke="none">
<path d="M3230 6440 c0 -6 97 -10 270 -10 173 0 270 4 270 10 0 6 -97 10 -270
10 -173 0 -270 -4 -270 -10z"></path>
<path d="M3150 6430 c0 -5 11 -10 25 -10 14 0 25 5 25 10 0 6 -11 10 -25 10
-14 0 -25 -4 -25 -10z"></path>
<path d="M3820 6430 c0 -5 7 -10 15 -10 8 0 15 5 15 10 0 6 -7 10 -15 10 -8 0
-15 -4 -15 -10z"></path>
<path d="M2878 6393 c-44 -5 -52 -23 -10 -23 45 0 102 12 102 21 0 9 -20 9
-92 2z"></path>
<path d="M4030 6393 c0 -11 54 -23 103 -23 15 0 27 5 27 10 0 6 -8 10 -19 10
-10 0 -39 3 -65 6 -28 4 -46 3 -46 -3z"></path>
<path d="M2800 6370 c0 -5 5 -10 10 -10 6 0 10 5 10 10 0 6 -4 10 -10 10 -5 0
-10 -4 -10 -10z"></path>
<path d="M2638 6333 c-10 -2 -18 -9 -18 -15 0 -6 10 -8 23 -4 12 3 30 6 40 6
9 0 17 5 17 10 0 10 -30 12 -62 3z"></path>
<path d="M4300 6333 c0 -11 70 -26 79 -18 8 9 -6 16 -43 22 -21 3 -36 2 -36
-4z"></path>
<path d="M2483 6279 c-18 -5 -33 -14 -33 -20 0 -6 7 -8 16 -5 9 3 27 9 40 12
13 3 24 10 24 15 0 11 -4 10 -47 -2z"></path>
<path d="M4460 6281 c0 -5 12 -12 28 -15 15 -4 35 -9 45 -12 9 -3 17 -1 17 5
0 5 -17 15 -37 20 -46 13 -53 13 -53 2z"></path>
<path d="M2334 6220 c-40 -16 -36 -28 6 -18 22 6 40 14 40 19 0 11 -18 11 -46
-1z"></path>
<path d="M4615 6222 c6 -7 26 -15 45 -18 26 -5 32 -4 25 4 -6 7 -26 15 -45 18
-26 5 -32 4 -25 -4z"></path>
<path d="M2224 6173 c-12 -2 -32 -15 -44 -28 l-23 -25 51 22 c29 12 52 26 52
30 0 4 -3 7 -7 7 -5 -1 -18 -4 -29 -6z"></path>
<path d="M4740 6173 c0 -13 147 -86 162 -80 7 3 -4 12 -26 22 -21 9 -50 25
-65 35 -31 22 -71 35 -71 23z"></path>
<path d="M2104 6105 c-15 -11 -16 -14 -3 -15 8 0 24 7 35 15 15 11 16 14 3 15
-8 0 -24 -7 -35 -15z"></path>
<path d="M2002 6045 c-17 -14 -37 -25 -45 -25 -8 0 -27 -10 -43 -22 -15 -13
-42 -32 -60 -43 -68 -43 -110 -73 -128 -94 -11 -11 -23 -21 -28 -21 -17 0
-190 -150 -288 -249 -87 -87 -212 -233 -283 -328 -15 -21 -40 -54 -55 -75 -15
-20 -36 -51 -47 -69 -11 -19 -30 -49 -42 -69 -12 -19 -31 -51 -41 -70 -10 -19
-28 -51 -40 -70 -12 -19 -22 -42 -22 -51 0 -9 -9 -24 -20 -34 -11 -10 -26 -37
-32 -59 -7 -23 -20 -53 -31 -67 -10 -14 -23 -45 -28 -69 -5 -24 -18 -55 -29
-70 -22 -31 -38 -110 -22 -110 5 0 13 16 17 37 3 20 20 64 36 98 16 34 29 68
29 75 0 7 9 29 20 49 11 20 29 56 40 81 57 123 176 321 279 460 122 165 310
364 483 513 89 76 300 222 401 277 20 11 37 23 37 25 0 13 -32 2 -58 -20z"></path>
<path d="M4940 6065 c0 -6 56 -35 67 -35 14 1 -39 40 -53 40 -8 0 -14 -2 -14
-5z"></path>
<path d="M5030 6011 c0 -6 4 -11 8 -11 23 0 210 -135 362 -261 126 -104 254
-235 377 -386 92 -113 227 -310 259 -377 10 -20 21 -36 26 -36 15 0 8 27 -20
71 -16 24 -43 67 -60 94 -52 83 -76 116 -104 147 -16 16 -28 33 -28 38 0 14
-171 211 -266 306 -84 85 -213 196 -318 274 -26 19 -62 47 -81 63 -18 15 -37
27 -43 27 -6 0 -23 11 -39 24 -33 27 -73 42 -73 27z"></path>
<path d="M6080 4914 c-1 -15 85 -183 93 -184 12 0 -4 53 -23 75 -10 11 -23 37
-29 57 -11 34 -41 71 -41 52z"></path>
<path d="M6180 4702 c0 -6 5 -14 10 -17 6 -3 10 -15 10 -26 0 -24 28 -94 35
-87 10 10 -13 87 -34 114 -11 15 -21 22 -21 16z"></path>
<path d="M6259 4496 c18 -65 27 -84 35 -75 10 10 -18 110 -35 125 -18 16 -18
15 0 -50z"></path>
<path d="M6304 4383 c2 -10 10 -44 16 -75 6 -32 15 -58 20 -58 9 0 3 71 -12
118 -10 32 -34 47 -24 15z"></path>
<path d="M672 4373 c-13 -24 -21 -123 -11 -123 4 0 11 17 14 38 4 20 11 52 15
70 9 34 -3 44 -18 15z"></path>
<path d="M622 4183 c-16 -30 -27 -163 -13 -163 6 0 11 4 11 9 0 5 5 44 11 86
11 80 8 100 -9 68z"></path>
<path d="M6363 4148 c3 -18 9 -59 13 -90 9 -84 28 -75 20 10 -3 37 -9 77 -12
90 -10 35 -27 26 -21 -10z"></path>
<path d="M570 3910 c0 -5 5 -10 10 -10 6 0 10 5 10 10 0 6 -4 10 -10 10 -5 0
-10 -4 -10 -10z"></path>
<path d="M6410 3890 c0 -5 5 -10 10 -10 6 0 10 5 10 10 0 6 -4 10 -10 10 -5 0
-10 -4 -10 -10z"></path>
<path d="M6425 3500 c0 -198 3 -360 6 -360 11 0 19 150 19 354 0 207 -8 366
-19 366 -3 0 -6 -162 -6 -360z"></path>
<path d="M556 3804 c-8 -60 -8 -577 0 -626 4 -21 9 -38 13 -38 3 0 6 160 6
355 0 195 -3 355 -6 355 -4 0 -9 -21 -13 -46z"></path>
<path d="M6410 3100 c0 -5 5 -10 10 -10 6 0 10 5 10 10 0 6 -4 10 -10 10 -5 0
-10 -4 -10 -10z"></path>
<path d="M570 3090 c0 -5 5 -10 10 -10 6 0 10 5 10 10 0 6 -4 10 -10 10 -5 0
-10 -4 -10 -10z"></path>
<path d="M6376 2948 c-4 -29 -9 -70 -12 -90 -3 -22 -2 -38 4 -38 12 0 19 28
28 113 8 81 -11 95 -20 15z"></path>
<path d="M600 2958 c0 -45 21 -153 32 -163 7 -7 9 4 5 35 -3 25 -9 69 -12 98
-7 51 -25 74 -25 30z"></path>
<path d="M6320 2693 c-6 -32 -14 -66 -16 -75 -10 -33 14 -18 24 15 15 46 21
117 12 117 -5 0 -14 -26 -20 -57z"></path>
<path d="M663 2664 c2 -25 11 -53 19 -61 13 -12 13 -6 5 46 -11 72 -32 84 -24
15z"></path>
<path d="M705 2550 c13 -69 26 -109 35 -115 14 -8 12 10 -5 74 -17 64 -41 97
-30 41z"></path>
<path d="M6272 2543 c-6 -10 -13 -36 -17 -58 -6 -37 -5 -39 9 -21 17 21 32 83
23 92 -3 3 -10 -3 -15 -13z"></path>
<path d="M6205 2363 c-9 -32 -23 -65 -30 -73 -7 -8 -18 -33 -25 -55 -7 -22
-18 -47 -26 -55 -7 -8 -22 -35 -34 -60 -29 -62 -43 -87 -139 -233 -151 -232
-334 -443 -539 -619 -91 -78 -113 -95 -297 -221 -64 -44 -85 -62 -72 -65 11
-2 31 7 45 21 15 14 41 32 57 41 17 9 50 32 75 51 25 19 56 43 70 52 166 114
426 378 583 590 15 21 40 54 55 75 25 34 44 62 83 127 8 14 25 42 37 61 12 19
22 42 22 51 0 9 9 24 20 34 10 9 25 33 31 53 7 20 20 45 30 56 10 11 22 36 25
55 4 20 14 45 24 56 10 11 23 38 29 60 13 49 14 55 2 55 -5 0 -17 -26 -26 -57z"></path>
<path d="M764 2383 c2 -10 8 -29 11 -43 4 -14 15 -34 25 -45 10 -11 21 -36 25
-55 4 -19 15 -44 25 -55 10 -11 21 -31 25 -45 4 -14 18 -37 31 -52 12 -15 25
-41 29 -57 3 -16 15 -37 26 -47 10 -9 19 -23 19 -29 0 -7 12 -28 28 -48 15
-19 36 -50 47 -68 11 -18 25 -41 31 -52 6 -10 23 -31 38 -46 14 -15 26 -33 26
-40 0 -7 12 -25 28 -39 15 -15 62 -67 104 -117 82 -97 271 -285 287 -285 6 0
15 -9 21 -20 6 -11 17 -20 25 -20 7 0 23 -13 35 -29 11 -17 31 -33 43 -37 12
-3 34 -19 49 -35 25 -27 54 -40 46 -20 -1 5 -41 37 -88 72 -107 81 -325 291
-444 430 -120 140 -295 400 -364 543 -14 28 -39 80 -57 116 -17 36 -37 82 -44
103 -12 36 -37 54 -27 20z"></path>
<path d="M1820 1065 c6 -8 22 -17 33 -21 12 -4 36 -18 54 -33 69 -56 91 -70
119 -77 16 -3 40 -17 54 -29 26 -23 80 -42 80 -27 0 4 -21 18 -47 30 -65 30
-124 63 -154 85 -42 32 -133 87 -142 87 -5 0 -4 -7 3 -15z"></path>
<path d="M4953 948 c-21 -10 -32 -28 -18 -28 10 0 65 30 65 35 0 8 -23 4 -47
-7z"></path>
<path d="M4813 872 c-40 -21 -72 -40 -73 -45 0 -12 53 4 75 23 11 9 35 23 53
30 34 13 52 31 30 29 -7 0 -45 -17 -85 -37z"></path>
<path d="M2190 846 c18 -18 70 -32 70 -19 0 5 -15 14 -33 21 -44 16 -55 15
-37 -2z"></path>
<path d="M2324 786 c11 -9 29 -16 40 -16 28 0 8 17 -29 25 -29 6 -29 6 -11 -9z"></path>
<path d="M4631 789 c-13 -5 -21 -12 -18 -15 8 -8 65 5 72 17 8 12 -23 11 -54
-2z"></path>
<path d="M2440 741 c0 -5 8 -12 18 -14 50 -14 72 -16 72 -8 0 5 -12 12 -27 15
-16 4 -36 9 -45 12 -10 3 -18 1 -18 -5z"></path>
<path d="M4488 733 c-30 -8 -20 -24 10 -17 34 8 53 24 27 23 -11 -1 -28 -3
-37 -6z"></path>
<path d="M2610 681 c0 -12 68 -27 77 -17 9 9 2 13 -39 20 -23 4 -38 3 -38 -3z"></path>
<path d="M4328 683 c-34 -5 -37 -23 -4 -23 31 0 56 10 56 21 0 9 -4 9 -52 2z"></path>
<path d="M4180 630 c0 -5 5 -10 10 -10 6 0 10 5 10 10 0 6 -4 10 -10 10 -5 0
-10 -4 -10 -10z"></path>
<path d="M2840 622 c0 -11 117 -28 127 -18 11 10 -1 14 -65 22 -40 4 -62 3
-62 -4z"></path>
<path d="M4063 623 c-18 -2 -33 -9 -33 -15 0 -7 16 -9 46 -4 26 3 55 6 65 6
11 0 19 5 19 10 0 10 -33 11 -97 3z"></path>
<path d="M3120 570 c0 -5 7 -10 15 -10 8 0 15 5 15 10 0 6 -7 10 -15 10 -8 0
-15 -4 -15 -10z"></path>
<path d="M3850 570 c0 -5 5 -10 10 -10 6 0 10 5 10 10 0 6 -4 10 -10 10 -5 0
-10 -4 -10 -10z"></path>
<path d="M3210 560 c0 -6 103 -10 290 -10 187 0 290 4 290 10 0 6 -103 10
-290 10 -187 0 -290 -4 -290 -10z"></path>
</g>
</svg>