<svg xmlns="http://www.w3.org/2000/svg" width="514" height="200" preserveAspectRatio="xMidYMid" style=""><rect id="backgroundrect" width="100%" height="100%" x="0" y="0" fill="none" stroke="none" class="" style=""/>

 <g style="">
  <title>background</title>
  <rect fill="none" id="canvas_background" height="192" width="514" y="-1" x="-1"/>
 </g>
 <g style="" class="currentLayer">
  <title>Layer 1</title>
  <path id="svg_1" fill="#204956" d="m1,92.994 l0,-5.295 c0,-1.081 0.54,-1.621 1.62,-1.621 l5.62,0 l0,-56.193 l-5.62,0 c-1.08,0 -1.62,-0.54 -1.62,-1.62 l0,-5.405 c0,-1.08 0.54,-1.62 1.62,-1.62 c9.222,-0.43300000000000005 16.895,-0.6500000000000001 23.018,-0.6500000000000001 c18.731,0 28.096,6.7 28.096,20.1 c0,4.683 -1.188,8.808 -3.566,12.374 c-2.3770000000000002,3.566 -5.547,6.285 -9.51,8.158 l12.644,24.855 l6.7,0 c1.08,0 1.621,0.54 1.621,1.62 l0,5.296 c0,1.08 -0.54,1.62 -1.62,1.62 l-14.266,0 c-1.08,0 -1.8730000000000002,-0.468 -2.378,-1.404 l-14.695,-29.069 l-2.161,0 c-2.306,0 -4.359,-0.10800000000000001 -6.16,-0.32400000000000007 l0,22.26 l6.808,0 c1.08,0 1.621,0.541 1.621,1.622 l0,5.295 c0,1.08 -0.54,1.62 -1.62,1.62 l-24.532,0 c-1.08,0 -1.621,-0.54 -1.621,-1.62 l0.0010000000000000002,0.0010000000000000002 zm19.343,-63.434 l0,26.043 c0.5770000000000001,0.07200000000000001 1.405,0.10800000000000001 2.486,0.10800000000000001 c5.835,0 10.374,-1.153 13.615,-3.458 c3.242,-2.305 4.863,-5.763 4.863,-10.374 c0,-8.213 -5.69,-12.319 -17.074,-12.319 l-3.89,0 zm71.538,66.35 c-8.573,0 -14.859,-2.503 -18.857,-7.51 c-3.999,-5.007 -5.998,-11.635 -5.998,-19.883 c0,-8.25 2.125,-15.075 6.376,-20.478 c4.25,-5.4030000000000005 10.374,-8.105 18.37,-8.105 c3.963,0 7.367,0.7380000000000001 10.212,2.215 c2.846,1.477 5.025,3.476 6.538,5.998 c2.882,4.899 4.323,10.554 4.323,16.966 c0,3.025 -0.14400000000000002,4.682 -0.43300000000000005,4.97 c-0.28800000000000003,0.28900000000000003 -0.8280000000000001,0.43300000000000005 -1.62,0.43300000000000005 l-31.77,0 c0.36000000000000004,5.187 1.6380000000000001,9.203 3.835,12.049 c2.198,2.845 5.998,4.268 11.4,4.268 c3.963,0 8.034,-0.936 12.212,-2.81 c1.009,-0.504 1.729,-0.21600000000000003 2.161,0.8650000000000001 l2.053,4.97 c0.36000000000000004,0.8650000000000001 0.036000000000000004,1.586 -0.972,2.162 c-4.755,2.5940000000000003 -10.698,3.89 -17.83,3.89 zm-12.86,-33.39 l22.477,0 c0.14400000000000002,-9.006 -3.386,-13.509 -10.59,-13.509 c-4.25,0 -7.258,1.351 -9.023,4.053 c-1.7650000000000001,2.701 -2.72,5.853 -2.864,9.455 l0,0.0010000000000000002 zm58.57,-12.536 l0,27.232 c0,3.386 0.43200000000000005,5.835 1.2970000000000002,7.348 c0.8640000000000001,1.513 2.485,2.27 4.863,2.27 c2.3770000000000002,0 4.682,-0.505 6.916,-1.514 c0.792,-0.28800000000000003 1.368,0 1.729,0.8650000000000001 l1.945,4.97 c0.07200000000000001,0.21700000000000003 0.10800000000000001,0.523 0.10800000000000001,0.92 c0,0.3950000000000001 -0.36000000000000004,0.81 -1.08,1.242 c-3.459,1.729 -7.565,2.593 -12.32,2.593 c-6.412,0 -10.626,-1.657 -12.643,-4.97 c-1.441,-2.162 -2.27,-4.251 -2.486,-6.268 a82.652,82.652 0 0 1 -0.43200000000000005,-8.645 l0,-26.042 l-6.16,0 c-1.08,0 -1.62,-0.54 -1.62,-1.621 l0,-5.62 c0,-1.08 0.54,-1.62 1.62,-1.62 l6.16,0 l0,-14.589 c0,-1.08 0.54,-1.62 1.62,-1.62 l8.862,0 c1.08,0 1.621,0.54 1.621,1.62 l0,14.589 l10.914,0 c1.08,0 1.621,0.54 1.621,1.62 l0,5.62 c0,1.08 -0.54,1.62 -1.62,1.62 l-10.916,0 l0.0010000000000000002,0 zm20.532,-28.744 l0,-5.62 c0,-1.08 0.54,-1.62 1.62,-1.62 l16.318,0 c1.08,0 1.621,0.54 1.621,1.62 l0,33.284 c4.034,-5.98 9.618,-8.969 16.75,-8.969 c11.166,0 16.75,6.123 16.75,18.37 l0,27.773 l6.375,0 c1.08,0 1.621,0.54 1.621,1.62 l0,5.296 c0,1.08 -0.54,1.62 -1.62,1.62 l-23.666,0 c-1.081,0 -1.621,-0.54 -1.621,-1.62 l0,-5.295 c0,-1.081 0.54,-1.621 1.62,-1.621 l5.188,0 l0,-22.37 c0,-4.538 -0.5770000000000001,-7.852 -1.73,-9.941 c-1.1520000000000001,-2.09 -3.5300000000000002,-3.134 -7.132,-3.134 s-6.591,1.08 -8.969,3.242 c-2.3770000000000002,2.161 -3.566,4.61 -3.566,7.348 l0,24.855 l6.5920000000000005,0 c1.08,0 1.62,0.54 1.62,1.62 l0,5.296 c0,1.08 -0.54,1.62 -1.62,1.62 l-24.53,0 c-1.08,0 -1.621,-0.54 -1.621,-1.62 l0,-5.295 c0,-1.081 0.54,-1.621 1.62,-1.621 l5.836,0 l0,-63.218 l-5.835,0 c-1.08,0 -1.621,-0.54 -1.621,-1.62 zm84.829,64.838 l6.808,0 c1.08,0 1.62,0.54 1.62,1.62 l0,5.296 c0,1.08 -0.54,1.62 -1.62,1.62 l-25.72,0 c-1.08,0 -1.62,-0.54 -1.62,-1.62 l0,-5.295 c0,-1.081 0.54,-1.621 1.62,-1.621 l6.809,0 l0,-36.093 l-5.835,0 c-1.081,0 -1.621,-0.54 -1.621,-1.621 l0,-5.62 c0,-1.08 0.54,-1.62 1.62,-1.62 l16.318,0 c1.08,0 1.62,0.54 1.62,1.62 l0,43.334 l0.0010000000000000002,0 zm-15.129,-60.083 c0,-2.233 0.7030000000000001,-4.088 2.107,-5.565 c1.405,-1.477 3.278,-2.216 5.62,-2.216 c2.341,0 4.214,0.7390000000000001 5.619,2.216 s2.107,3.332 2.107,5.565 s-0.7200000000000001,4.07 -2.161,5.511 s-3.332,2.161 -5.673,2.161 c-2.342,0 -4.197,-0.7200000000000001 -5.566,-2.16 c-1.368,-1.4420000000000002 -2.053,-3.279 -2.053,-5.5120000000000005 zm27.34,22.477 l0,-5.727 c0,-1.081 0.54,-1.621 1.62,-1.621 l14.697000000000001,0 c0.937,0 1.513,0.54 1.73,1.62 l0.972,6.268 c4.034,-6.051 9.798,-9.077 17.29,-9.077 c11.166,0 16.75,6.123 16.75,18.37 l0,27.773 l6.267,0 c1.08,0 1.621,0.54 1.621,1.62 l0,5.296 c0,1.08 -0.54,1.62 -1.62,1.62 l-23.558,0 c-1.081,0 -1.621,-0.54 -1.621,-1.62 l0,-5.295 c0,-1.081 0.54,-1.621 1.62,-1.621 l5.188,0 l0,-22.37 c0,-4.538 -0.5770000000000001,-7.852 -1.73,-9.941 c-1.1520000000000001,-2.09 -3.5300000000000002,-3.134 -7.132,-3.134 s-6.591,1.08 -8.969,3.242 c-2.3770000000000002,2.161 -3.566,4.61 -3.566,7.348 l0,24.855 l6.7,0 c1.08,0 1.621,0.54 1.621,1.62 l0,5.296 c0,1.08 -0.54,1.62 -1.62,1.62 l-24.531,0 c-1.08,0 -1.621,-0.54 -1.621,-1.62 l0,-5.295 c0,-1.081 0.54,-1.621 1.62,-1.621 l5.728,0 l0,-36.093 l-5.835,0 c-1.08,0 -1.621,-0.504 -1.621,-1.513 zm84.829,-32.852 l0,43.117 l5.511,0 l16.75,-16.426 c0.792,-0.792 1.729,-1.188 2.81,-1.188 l8.428,0 c1.081,0 1.621,0.54 1.621,1.62 l0,5.62 c0,1.08 -0.54,1.62 -1.62,1.62 l-6.5920000000000005,0 l-11.887,11.563 l14.804,24.53 l6.376,0 c1.08,0 1.62,0.541 1.62,1.622 l0,5.295 c0,1.08 -0.54,1.62 -1.62,1.62 l-13.94,0 c-1.009,0 -1.8370000000000002,-0.468 -2.486,-1.404 l-16.209,-26.151 l-3.566,0 l0,19.019 l5.727,0 c1.08,0 1.621,0.54 1.621,1.62 l0,5.296 c0,1.08 -0.54,1.62 -1.62,1.62 l-23.558,0 c-1.081,0 -1.621,-0.54 -1.621,-1.62 l0,-5.295 c0,-1.081 0.54,-1.621 1.62,-1.621 l5.728,0 l0,-63.324 l-5.835,0 c-1.081,0 -1.621,-0.54 -1.621,-1.62 l0,-5.513 c0,-1.08 0.54,-1.621 1.62,-1.621 l16.318,0 c1.08,0 1.621,0.54 1.621,1.62 l0,0.0010000000000000002 zm44.846000000000004,5.62 c9.221,-0.43300000000000005 16.065,-0.6500000000000001 20.532,-0.6500000000000001 c4.466,0 7.798,0.09000000000000002 9.996,0.271 c2.197,0.18000000000000002 4.7,0.558 7.51,1.135 c2.81,0.5760000000000001 5.313,1.35 7.51,2.323 c2.198,0.973 4.413,2.36 6.646,4.16 a25.814,25.814 0 0 1 5.62,6.268 c3.313,5.475 4.97,12.535 4.97,21.18 c0,13.04 -3.6020000000000003,22.747 -10.806000000000001,29.123 s-17.038,9.564 -29.501,9.564 l-22.477,0 c-1.08,0 -1.621,-0.54 -1.621,-1.621 l0,-5.295 c0,-1.081 0.54,-1.621 1.62,-1.621 l5.62,0 l0,-56.084 l-5.62,0 c-1.08,0 -1.62,-0.54 -1.62,-1.62 l0,-5.513 c0,-1.08 0.54,-1.62 1.62,-1.62 l0.0010000000000000002,0 zm43.279,57.164 c4.358,-5.187 6.538,-12.283 6.538,-21.288 s-2.035,-15.85 -6.106,-20.532 c-4.07,-4.683 -10.428,-7.024 -19.073,-7.024 l-6.916,0 l0,56.625 l7.132,0 c7.925,0 14.066,-2.5940000000000003 18.425,-7.78 l0,-0.0010000000000000002 zm28.366,14.589 l0,-5.295 c0,-1.081 0.54,-1.621 1.621,-1.621 l5.728,0 l0,-56.084 l-5.62,0 c-1.08,0 -1.62,-0.54 -1.62,-1.62 l0,-5.513 c0,-1.153 0.54,-1.729 1.62,-1.729 c8.645,-0.36000000000000004 16.858,-0.54 24.639,-0.54 c7.78,0 13.994,1.495 18.64,4.484 c4.647,2.99 6.97,7.259 6.97,12.806000000000001 c0,4.034 -1.242,7.546 -3.728,10.536 c-2.485,2.99 -5.42,5.1690000000000005 -8.807,6.538 c5.547,0.8640000000000001 9.78,2.917 12.697000000000001,6.16 c2.918,3.241 4.377,7.203 4.377,11.886 c0,6.124 -2.27,11.076 -6.808,14.859 c-4.539,3.782 -10.554,5.925 -18.046,6.43 c-3.098,0.21600000000000003 -8.069,0.32400000000000007 -14.913,0.32400000000000007 l-15.129,0 c-1.08,0 -1.62,-0.54 -1.62,-1.621 l-0.0010000000000000002,0 zm19.452,-32.42 l0,25.72 l4.862,0 c6.34,0 11.257,-1.009 14.75,-3.026 c3.495,-2.017 5.242,-5.511 5.242,-10.482 c0,-8.14 -5.691,-12.211 -17.074,-12.211 l-7.78,0 l0,-0.0010000000000000002 zm0,-31.23 l0,22.262 l4.106,0 c10.662,0 15.993,-3.71 15.993,-11.13 c0,-4.18 -1.2970000000000002,-7.079 -3.89,-8.7 c-2.5940000000000003,-1.62 -6.304,-2.431 -11.13,-2.431 l-5.08,0 l0.0010000000000000002,-0.0010000000000000002 z" class=""/>
  <text xml:space="preserve" text-anchor="start" font-family="Helvetica, Arial, sans-serif" font-size="34" id="svg_2" y="168" x="10.5" stroke-width="0" stroke="#000" fill="#007f7f" class="">VIDOMIA</text>
  <path stroke="null" stroke-dasharray="2,2" id="svg_3" d="m170.04238006863403,162.13244582245636 l0,0 c0,-6.627417 5.596441,-12.000001 12.499999,-12.000001 l0,0 c3.315204,0 6.49463,1.264281 8.838832,3.5147180000000002 c2.344205,2.250437 3.661167,5.302684 3.661167,8.485283 l0,0 c0,6.627416 -5.596441,12.000001 -12.499999,12.000001 l0,0 c-6.903557,0 -12.499999,-5.372585 -12.499999,-12.000001 zm6.25,0 l0,0 c0,3.313708 2.798222,6 6.25,6 c3.45178,0 6.25,-2.686293 6.25,-6 c0,-3.313708 -2.798221,-6 -6.25,-6 l0,0 c-3.451777,0 -6.25,2.686294 -6.25,6 z" stroke-opacity="null" stroke-width="null" fill="#007f7f" class="selected"/>
  <path stroke="null" id="svg_4" d="m211.251691467762,178.76034878730775 l0,0 c0,-8.83655 7.3873,-16 16.5,-16 l0,0 c4.37607,0 8.57291,1.6857100000000007 11.66725,4.6862900000000005 c3.09435,3.00058 4.83275,7.07025 4.83275,11.31371 l0,0 c0,8.83656 -7.3873,16 -16.5,16 l0,0 c-9.1127,0 -16.5,-7.1634400000000005 -16.5,-16 zm8.25,0 l0,0 c0,4.41827 3.6936500000000008,8 8.25,8 c4.5563400000000005,0 8.25,-3.5817300000000003 8.25,-8 c0,-4.41828 -3.6936600000000004,-8 -8.25,-8 l0,0 c-4.55635,0 -8.25,3.5817200000000002 -8.25,8 z" stroke-opacity="null" stroke-width="null" fill="#007f7f" class=""/>
  <path stroke="null" id="svg_5" d="m206.3679656948104,129.44439089395013 l0,0 c0,-11.37209873597002 9.901793771389961,-20.59101780460167 22.116277752626896,-20.59101780460167 l0,0 c5.865603497089863,0 11.490961826220989,2.169408479368687 15.63855690103054,6.030972018083096 c4.147610953163624,3.861563538714409 6.477720851596355,9.0989728477993 6.477720851596355,14.560045786518574 l0,0 c0,11.372113480155946 -9.901793771389961,20.59101780460167 -22.116277752626896,20.59101780460167 l0,0 c-12.214485115405083,0 -22.116277752626896,-9.218903190277578 -22.116277752626896,-20.59101780460167 zm11.058139443397522,0 l0,0 c0,5.686048800900936 4.9509036907038695,10.295508902300835 11.058139443397522,10.295508902300835 c6.107234618525505,0 11.058139443397522,-4.60945896723175 11.058139443397522,-10.295508902300835 c0,-5.686048800900936 -4.9509036907038695,-10.295508902300835 -11.058139443397522,-10.295508902300835 l0,0 c-6.107234618525505,0 -11.058139443397522,4.60945896723175 -11.058139443397522,10.295508902300835 z" stroke-opacity="null" stroke-width="null" fill="#007f7f" class=""/>
  
  <line stroke-dasharray="2,2" stroke-linecap="null" stroke-linejoin="null" id="svg_8" y2="115" x2="468.5" y1="157" x1="385.5" fill-opacity="null" stroke-opacity="null" stroke-width="20" stroke="null" fill="none" class=""/>
  
  
  
  <line stroke-dasharray="2,2" stroke-linecap="null" stroke-linejoin="null" id="svg_12" y2="190" x2="414.5" y1="135" x1="338.5" fill-opacity="null" stroke-opacity="null" stroke-width="20" stroke="null" fill="none" class=""/>
  <rect id="svg_13" height="47" width="48" y="124" x="452.5" fill-opacity="null" stroke-opacity="null" stroke-width="20" stroke="null" fill="none" class=""/>
  
 <path fill="none" fill-opacity="0.5" stroke="null" stroke-opacity="0.5" stroke-width="20" stroke-dasharray="5,5" stroke-linejoin="miter" stroke-linecap="butt" stroke-dashoffset="" fill-rule="nonzero" opacity="1" marker-start="" marker-mid="" marker-end="" d="M117.07442014566809,183.720927154328 L163.58604727897716,148.25581146517982 " id="svg_7" class=""/></g>
</svg>